<svg xmlns="http://www.w3.org/2000/svg" width="768" height="432" viewBox="0 0 768 432" fill="none">
  <rect width="768" height="432" rx="36" fill="#111317"/>
  <rect x="28" y="28" width="712" height="376" rx="30" fill="#282626" stroke="#007AFF" stroke-opacity="0.10"/>
  <rect x="48" y="48" width="108" height="24" rx="8" fill="#ffffff" fill-opacity="0.88"/>
  <text x="70" y="64" fill="#111111" font-family="Helvetica, Arial, sans-serif" font-size="12" font-weight="800">Design Tokens</text>
  <rect x="166" y="48" width="126" height="24" rx="8" fill="#ffffff" fill-opacity="0.88"/>
  <text x="189" y="64" fill="#111111" font-family="Helvetica, Arial, sans-serif" font-size="12" font-weight="800">preview</text>
  <rect x="604" y="42" width="108" height="34" rx="12" fill="#1484ff"/>
  <text x="630" y="64" fill="#ffffff" font-family="Helvetica, Arial, sans-serif" font-size="14" font-weight="800">DEVELOPER SYSTEM</text>
  <text x="384" y="154" text-anchor="middle" fill="#f2f4f8" font-family="Helvetica, Arial, sans-serif" font-size="76" font-weight="900" letter-spacing="-3">OpenCode AI</text>
  <text x="384" y="194" text-anchor="middle" fill="#94a3b8" font-family="Helvetica, Arial, sans-serif" font-size="22" font-weight="500">深色基底，现代、清晰，整体更偏开发者气质…</text>
  <rect x="224" y="220" width="138" height="42" rx="14" fill="#1484ff"/>
  <text x="260" y="247" fill="#ffffff" font-family="Helvetica, Arial, sans-serif" font-size="16" font-weight="800">Get Started</text>
  <rect x="376" y="220" width="176" height="42" rx="14" fill="#16181d" stroke="#2b2e36" stroke-opacity="0.16"/>
  <text x="414" y="247" fill="#f2f4f8" font-family="Helvetica, Arial, sans-serif" font-size="16" font-weight="800">View Docs</text>
  <text x="80" y="312" fill="#94a3b8" font-family="Helvetica, Arial, sans-serif" font-size="14" font-weight="700" letter-spacing="1">01 / COLORS</text>
  <text x="80" y="352" fill="#f2f4f8" font-family="Helvetica, Arial, sans-serif" font-size="34" font-weight="800">Palette</text>
  <rect x="80" y="372" width="148" height="12" rx="6" fill="#94a3b8" fill-opacity="0.20"/>
  <rect x="80" y="388" width="144" height="0" fill="transparent"/>
  <rect x="314" y="298" width="114" height="86" rx="18" fill="#0f81ff"/>
  <rect x="438" y="298" width="114" height="86" rx="18" fill="#ffffff" stroke="#2b2e36" stroke-opacity="0.10"/>
  <rect x="562" y="298" width="114" height="86" rx="18" fill="#1e2129" stroke="#2b2e36" stroke-opacity="0.10"/>
  <rect x="686" y="298" width="0" height="0" fill="transparent"/>
</svg>
