<svg xmlns="http://www.w3.org/2000/svg" width="768" height="432" viewBox="0 0 768 432" fill="none">
  <rect width="768" height="432" rx="36" fill="#f8f8f8"/>
  <rect x="32" y="32" width="704" height="368" rx="28" fill="#ffffff" stroke="#1f2228" stroke-opacity="0.12"/>
  <rect x="32" y="116" width="704" height="1" fill="#1f2228" fill-opacity="0.10"/>
  <text x="78" y="84" fill="#1f2228" font-family="Menlo, SFMono-Regular, Consolas, monospace" font-size="16" font-weight="700" letter-spacing="2">TRY GROK</text>
  <rect x="590" y="56" width="122" height="40" rx="12" fill="#1f2228"/>
  <text x="624" y="81" fill="#ffffff" font-family="Menlo, SFMono-Regular, Consolas, monospace" font-size="14" font-weight="700">START</text>
  <text x="78" y="186" fill="#1f2228" font-family="Menlo, SFMono-Regular, Consolas, monospace" font-size="86" font-weight="700" letter-spacing="-3">xAI</text>
  <text x="80" y="224" fill="#6f737b" font-family="Helvetica, Arial, sans-serif" font-size="22" font-weight="500">极简未来感、等宽字、黑白精密</text>
  <rect x="80" y="260" width="156" height="40" rx="12" fill="#1f2228"/>
  <text x="114" y="286" fill="#ffffff" font-family="Menlo, SFMono-Regular, Consolas, monospace" font-size="15" font-weight="700">GET STARTED</text>
  <rect x="252" y="260" width="214" height="40" rx="12" fill="#ffffff" stroke="#1f2228" stroke-opacity="0.14"/>
  <text x="286" y="286" fill="#1f2228" font-family="Menlo, SFMono-Regular, Consolas, monospace" font-size="15" font-weight="700">VIEW DOCS</text>
  <rect x="80" y="332" width="104" height="22" rx="11" fill="#1f2228" fill-opacity="0.08"/>
  <rect x="196" y="332" width="104" height="22" rx="11" fill="#1f2228" fill-opacity="0.12"/>
  <rect x="486" y="156" width="192" height="176" rx="24" fill="#fcfcfc" stroke="#1f2228" stroke-opacity="0.08"/>
  <rect x="514" y="186" width="136" height="14" rx="7" fill="#1f2228" fill-opacity="0.10"/>
  <rect x="514" y="214" width="98" height="92" rx="18" fill="#1f2228" fill-opacity="0.12"/>
  <rect x="624" y="214" width="26" height="92" rx="13" fill="#1f2228" fill-opacity="0.06"/>
</svg>
